<svg id="Capa_1" data-name="Capa 1" xmlns="http://www.w3.org/2000/svg" viewBox="0 0 292.04 159.07"><defs><style>.cls-1{fill:#edc546;}.cls-2{fill:#c53585;}.cls-3{fill:#426ea2;}.cls-4{fill:#73bada;}.cls-5{fill:#76ab44;}.cls-6{fill:#fff;}</style></defs><path class="cls-1" d="M278.08,30.42A13.46,13.46,0,1,1,264.62,17a13.46,13.46,0,0,1,13.46,13.46" transform="translate(-52.28 -16.96)"/><path class="cls-2" d="M325.38,50.58a12.12,12.12,0,1,1-12.11-12.12,12.11,12.11,0,0,1,12.11,12.12" transform="translate(-52.28 -16.96)"/><path class="cls-3" d="M344.31,99.25a10.9,10.9,0,1,1-10.9-10.9,10.89,10.89,0,0,1,10.9,10.9" transform="translate(-52.28 -16.96)"/><path class="cls-4" d="M323.08,147.92a9.81,9.81,0,1,1-9.81-9.8,9.82,9.82,0,0,1,9.81,9.8" transform="translate(-52.28 -16.96)"/><path class="cls-5" d="M272.57,168.09a7.95,7.95,0,1,1-7.95-8,7.95,7.95,0,0,1,7.95,8" transform="translate(-52.28 -16.96)"/><path class="cls-6" d="M114.7,96.71a31.21,31.21,0,1,0-31.21,31.2,31.67,31.67,0,0,0,8-1,4.68,4.68,0,0,1,5.24,2,15.42,15.42,0,1,1-27.77,13,7.74,7.74,0,0,0-7.36-5,7.88,7.88,0,0,0-7.47,10.47,31.22,31.22,0,1,0,53.32-30.54,31.1,31.1,0,0,0,7.3-20.05m-46.76,0a15.55,15.55,0,1,1,15.55,15.54A15.54,15.54,0,0,1,67.94,96.71" transform="translate(-52.28 -16.96)"/><path class="cls-6" d="M181.6,99.25V78.39a7.82,7.82,0,1,0-15.64,0V99.25a13,13,0,0,1-26.07,0V78.39a7.82,7.82,0,1,0-15.64,0V99.25a28.68,28.68,0,0,0,57.35,0" transform="translate(-52.28 -16.96)"/><path class="cls-6" d="M190.55,99.25v20.86a7.82,7.82,0,0,0,15.63,0V99.25a13.05,13.05,0,0,1,13-13h.1a8,8,0,0,0,7.44-4.76,7.83,7.83,0,0,0-7.06-10.87h-.48a28.64,28.64,0,0,0-28.67,28.68" transform="translate(-52.28 -16.96)"/><path class="cls-6" d="M293.3,99.25V78.39a7.82,7.82,0,1,0-15.64,0V99.25a13,13,0,0,1-26.09,0V78.39a7.82,7.82,0,1,0-15.63,0V99.25a28.68,28.68,0,0,0,57.36,0" transform="translate(-52.28 -16.96)"/></svg>